<svg xmlns="http://www.w3.org/2000/svg" width="91" height="30" fill="none"><path fill="#fff" d="M35.446 16.228v11.085h-2.739V2.681h2.74v11.084h6.042V2.681h2.74v24.633h-2.74V16.228h-6.043zM52.555 2.681c3.829 0 5.34 1.828 5.34 5.454v1.162c0 2.604-.739 4.223-2.882 4.89 2.389.667 3.303 2.567 3.303 5.277v2.076c0 3.697-1.793 5.771-5.622 5.771H47.04V2.681h5.516zm-.668 10.451c2.178 0 3.301-.704 3.301-3.272V8.416c0-2.18-.738-3.237-2.704-3.237h-2.705v7.953h2.108zm.807 11.688c2.003 0 2.916-1.056 2.916-3.34v-2.182c0-2.743-1.088-3.66-3.442-3.66h-2.39v9.183l2.916-.001zM71.453 8.593v.668h-2.6v-.81c0-2.216-.843-3.52-2.808-3.52-1.966 0-2.812 1.304-2.812 3.485 0 5.524 8.256 6.053 8.256 12.986 0 3.73-1.793 6.16-5.552 6.16-3.758 0-5.514-2.43-5.514-6.16v-1.408h2.563v1.55c0 2.218.915 3.52 2.882 3.52 1.968 0 2.88-1.302 2.88-3.52 0-5.485-8.214-6.017-8.214-12.949 0-3.8 1.757-6.158 5.445-6.158 3.723 0 5.476 2.428 5.476 6.158m5.162-5.914h-2.74v24.633h2.74V2.68zM90.07 8.593v.668h-2.6v-.81c0-2.216-.843-3.52-2.81-3.52-1.969 0-2.81 1.304-2.81 3.485 0 5.524 8.256 6.053 8.256 12.986 0 3.73-1.793 6.16-5.551 6.16-3.759 0-5.513-2.43-5.513-6.16v-1.408h2.564v1.55c0 2.218.915 3.52 2.882 3.52 1.966 0 2.88-1.302 2.88-3.52 0-5.485-8.215-6.017-8.215-12.949 0-3.8 1.756-6.158 5.446-6.158 3.722 0 5.476 2.428 5.476 6.158"/><path fill="#D9D9D9" d="M8.12 3.094h-.002l3.412 5.919-3.41-5.92z"/><path fill="#fff" d="M7.767 3.7l-.699-1.213L3.671.52C3.082.18 2.5 0 1.988 0 .762 0 0 1.013 0 2.643v15.515h5.561l5.266-9.145L7.767 3.7zM16.8 18.158l.456.79 1.153 2.003 6.62-3.83c1-.579 1.548-1.333 1.548-2.122 0-.79-.55-1.55-1.548-2.124L8.124 3.095l3.411 5.92 5.27 9.144-.006-.001zM0 18.767v8.587c-.005.403.05.805.165 1.192C.456 29.484 1.104 30 1.99 30c.513 0 1.094-.179 1.68-.519l14.214-8.22-1.325-2.3-.11-.19H0v-.004z"/></svg>